<?xml version="1.0" encoding="UTF-8" standalone="no"?>
<svg
   version="1.1"
   x="0px"
   y="0px"
   viewBox="0 0 120 120"
   xml:space="preserve"
   id="svg6"
   width="120"
   height="120"
   xmlns="http://www.w3.org/2000/svg"
   xmlns:svg="http://www.w3.org/2000/svg"><defs
     id="defs6" /><rect
     style="fill:#6495ed;fill-opacity:1;stroke-width:4.77359"
     id="rect6"
     width="120"
     height="120"
     x="0"
     y="0" /><g
     id="g4"
     style="fill:#ffffff"
     transform="translate(28.442489,28.113166)"><path
       d="m 12.25278,7.1820483 c -0.672495,2.1737431 0.54912,4.4898207 2.723795,5.1626037 l 5.020131,1.55309 -1.553377,5.021062 c -0.672782,2.174676 0.548832,4.490754 2.723508,5.163537 2.174676,0.672784 4.490754,-0.548832 5.163538,-2.723507 l 1.553377,-5.021064 27.92745,8.639968 c 5.25405,1.447739 7.605375,-6.105326 2.43965,-7.886142 9.2e-5,3e-5 -40.834535,-12.6330547 -40.834535,-12.6330547 -2.174675,-0.6727842 -4.490756,0.5488323 -5.163537,2.723507 z M 57.65984,19.00228 c 2.643267,0.889068 1.460274,4.824794 -1.257608,4.064782 7.3e-5,2.4e-5 -28.882706,-8.935496 -28.882706,-8.935496 -0.528043,-0.16336 -1.087516,0.131736 -1.250878,0.659775 l -1.848927,5.976392 c -0.894089,2.655568 -4.827071,1.446963 -4.065716,-1.257892 -2.3e-5,6.5e-5 1.848906,-5.976325 1.848906,-5.976325 0.16336,-0.528041 -0.131735,-1.087516 -0.659776,-1.25088 L 15.567676,10.433999 C 12.916497,9.5416249 14.116165,5.6086533 16.82528,6.3692189 16.825213,6.3691949 57.65984,19.00228 57.65984,19.00228 Z"
       id="path1"
       style="fill:#ffffff" /><path
       d="m 8.5183105,42.84375 c -4.1205235,4.012661 -1.0683837,11.245445 4.6173415,11.142502 5.68509,0.102638 8.738207,-7.130543 4.616875,-11.142563 -2.544763,-2.546814 -6.689295,-2.546814 -9.2342165,6.1e-5 z m 7.8203125,7.819336 C 11.96974,54.760075 5.836287,48.623737 9.9324417,44.25774 14.29964,40.160858 20.435926,46.295814 16.338623,50.663086 Z"
       id="path2"
       style="fill:#ffffff" /><path
       d="m 43.623779,37.882812 v -2.421875 c 0,-0.552734 -0.447265,-1 -1,-1 h -1.765625 v -5.594726 c 0,-1.99707 -1.624023,-3.621094 -3.621093,-3.621094 h -0.950196 c -0.924804,0 -1.803711,0.347656 -2.475586,0.979492 L 22.325317,36.990234 21.010498,35.675781 c -0.390625,-0.390625 -1.023437,-0.390625 -1.414062,0 l -1.712891,1.711914 C 6.5646896,32.27758 -3.4030797,46.362492 5.2606196,55.336033 14.272495,63.990261 28.295043,54.059334 23.207763,42.711914 l 1.712891,-1.712891 c 0.387392,-0.37191 0.387422,-1.042163 -1.4e-5,-1.414062 1.4e-5,0 -1.180589,-1.180298 -1.180589,-1.180298 L 35.179443,27.682617 c 0.300781,-0.282226 0.693359,-0.4375 1.107422,-0.4375 h 0.950195 c 0.893555,0 1.621094,0.727539 1.621094,1.621094 v 5.594727 h -1.764649 c -0.552734,0 -1,0.447265 -1,1 v 2.421875 c -11.617897,4.389877 -8.704691,21.40023 3.764801,21.617168 12.47218,-0.217602 15.382016,-17.229164 3.765473,-21.617169 z m -22.510742,5.126954 c 4.961292,9.315681 -6.808657,18.240497 -14.4385585,10.912006 -3.562418,-3.563374 -3.562418,-9.360249 8.2e-5,-12.922749 2.8873177,-2.888973 7.3846155,-3.49694 10.9111325,-1.515621 0.388672,0.21777 0.87793,0.15234 1.196289,-0.165043 l 1.521485,-1.521484 2.496094,2.495117 -1.521485,1.521485 c -0.316406,0.316406 -0.383789,0.805664 -0.165039,1.196289 z M 39.858154,57.5 c -5.038086,0 -9.136718,-4.099609 -9.136718,-9.137695 0,-4.073243 2.731445,-7.686524 6.642578,-8.78711 0.43164,-0.12207 0.729492,-0.514648 0.729492,-0.96289 v -2.151368 h 3.530273 v 2.151368 c 0,0.448242 0.297852,0.84082 0.729492,0.96289 3.911133,1.100586 6.642579,4.713867 6.642579,8.78711 0,5.038086 -4.09961,9.137695 -9.137696,9.137695 z"
       id="path3"
       style="fill:#ffffff" /><path
       d="m 39.858154,41.833008 c -3.600586,0 -6.529297,2.928711 -6.529297,6.529297 0.328133,8.651806 12.732361,8.648525 13.059578,-8.4e-5 -7e-6,-3.600502 -2.929695,-6.529213 -6.530281,-6.529213 z m 0,11.05957 c -5.985141,-0.190571 -5.984737,-8.869656 1e-4,-9.059574 5.987403,0.190533 5.985,8.870174 -1e-4,9.059574 z"
       id="path4"
       style="fill:#ffffff" /></g></svg>
